<?xml version="1.0" standalone="no"?><!DOCTYPE svg PUBLIC "-//W3C//DTD SVG 1.1//EN" "http://www.w3.org/Graphics/SVG/1.1/DTD/svg11.dtd"><svg t="1569072124955" class="icon" viewBox="0 0 1024 1024" version="1.1" xmlns="http://www.w3.org/2000/svg" p-id="8438" xmlns:xlink="http://www.w3.org/1999/xlink" width="128" height="128"><defs><style type="text/css"></style></defs><path d="M401.351111 105.813333l519.964445 263.736889c38.229333 19.456 56.035556 72.135111 39.879111 117.76l-126.065778 353.564445c-16.270222 45.624889-60.359111 66.901333-98.588445 47.559111l-519.964444-263.793778c-38.229333-19.342222-56.092444-72.021333-39.879111-117.703111L302.705778 153.372444c16.782222-44.942222 60.359111-65.991111 98.588444-47.559111z" fill="#FB560A" p-id="8439"></path><path d="M240.412444 326.656h657.066667c33.564444-0.113778 65.877333 15.36 89.656889 43.121778 23.779556 27.761778 37.034667 65.422222 36.920889 104.675555v387.128889c0.113778 39.253333-13.141333 76.913778-36.977778 104.675556-23.722667 27.704889-55.978667 43.235556-89.6 43.064889H240.412444c-33.564444 0.170667-65.877333-15.36-89.656888-43.064889-23.779556-27.761778-37.034667-65.422222-36.920889-104.675556V474.453333c-0.113778-39.253333 13.141333-76.913778 36.977777-104.675555 23.722667-27.704889 55.978667-43.235556 89.6-43.121778z" fill="#3889FF" p-id="8440"></path><path d="M682.723556 923.932444c0 11.548444 6.371556 21.902222 16.156444 26.339556a24.803556 24.803556 0 0 0 28.672-6.144 30.151111 30.151111 0 0 0 5.688889-31.004444 26.339556 26.339556 0 0 0-24.234667-17.578667c-14.506667 0-26.225778 12.743111-26.282666 28.444444z m87.608888 0c0 11.548444 6.371556 21.902222 16.156445 26.339556a24.803556 24.803556 0 0 0 28.615111-6.144 30.151111 30.151111 0 0 0 5.745778-31.004444 26.339556 26.339556 0 0 0-24.291556-17.578667c-14.449778 0-26.168889 12.743111-26.225778 28.444444z m87.438223 0c0 11.548444 6.371556 21.902222 16.156444 26.339556a24.803556 24.803556 0 0 0 28.615111-6.144 30.151111 30.151111 0 0 0 5.688889-31.004444 26.339556 26.339556 0 0 0-24.234667-17.578667c-14.449778 0-26.168889 12.743111-26.225777 28.444444z" fill="#FFFFFF" p-id="8441"></path><path d="M261.233778 497.379556c-17.976889-0.227556-32.881778 12.344889-33.621334 28.387555 0 7.850667 3.640889 15.36 10.012445 20.707556a34.247111 34.247111 0 0 0 23.836444 7.736889h614.968889c18.090667 0.341333 33.166222-12.344889 33.848889-28.444445a27.136 27.136 0 0 0-10.069333-20.707555 34.304 34.304 0 0 0-23.779556-7.68H261.233778z" fill="#DAE9FF" p-id="8442"></path><path d="M261.461333 497.379556c-18.090667-0.341333-33.109333 12.231111-33.848889 28.387555 0 7.850667 3.640889 15.36 10.012445 20.707556a34.304 34.304 0 0 0 23.836444 7.736889h614.968889c17.92 0 33.848889-16.042667 33.848889-28.444445 0-12.458667-15.36-28.444444-33.848889-28.444444H261.461333z" fill="#FFFFFF" p-id="8443"></path><path d="M113.834667 326.656a28.444444 28.444444 0 0 1 1.706666-9.671111l80.213334-220.501333A113.777778 113.777778 0 0 1 356.181333 34.986667L696.092444 216.177778a28.444444 28.444444 0 1 1-26.737777 50.232889L329.443556 85.162667a56.888889 56.888889 0 0 0-80.213334 30.72L172.487111 326.712889h541.013333c14.336 0 26.055111 10.012444 26.055112 22.243555 0 12.231111-11.719111 22.186667-26.055112 22.186667H104.277333c-28.672 0-52.110222 20.081778-52.110222 44.487111v230.229334c0 12.231111-11.548444 22.186667-26.055111 22.186666-14.336 0-26.055111-9.955556-26.055111-22.186666V415.573333c0-49.038222 46.705778-88.917333 104.163555-88.917333H113.834667z m807.822222 682.666667H102.456889A101.831111 101.831111 0 0 1 0.056889 908.231111v-101.148444c0-13.937778 11.548444-25.315556 25.6-25.315556s25.6 11.377778 25.6 25.315556v101.148444c0 27.818667 23.04 50.574222 51.2 50.574222h819.2c28.16 0 51.2-22.755556 51.2-50.631111v-25.258666c0-13.880889 11.491556-25.258667 25.6-25.258667 14.051556 0 25.6 11.377778 25.6 25.258667v25.315555c0 55.580444-45.909333 101.091556-102.4 101.091556z m76.117333-170.666667c-14.449778 0-26.282667-9.216-26.282666-20.48v-409.6c0-22.528-23.665778-40.96-52.565334-40.96h-39.253333c-14.449778 0-26.282667-9.216-26.282667-20.48 0-11.264 11.832889-20.48 26.282667-20.48h39.253333c58.026667 0 105.130667 36.750222 105.130667 81.92v409.6c0 11.264-11.662222 20.48-26.282667 20.48z m-218.453333-466.488889h-22.528c-9.443556 0-17.180444-10.24-17.180445-22.755555 0-12.515556 7.736889-22.755556 17.180445-22.755556h22.528c9.443556 0 17.180444 10.24 17.180444 22.755556 0 12.515556-7.736889 22.755556-17.180444 22.755555zM28.501333 781.767111c-15.644444 0-28.444444-11.207111-28.444444-24.917333v-63.886222c0-13.710222 12.8-24.974222 28.444444-24.974223s28.444444 11.264 28.444445 24.974223v63.886222c0 13.710222-12.629333 24.917333-28.444445 24.917333zM820.394667 312.888889c-7.111111 13.937778-22.926222 20.252444-35.157334 13.994667l-56.888889-29.013334c-12.231111-6.257778-16.440889-22.755556-9.329777-36.636444 7.111111-13.937778 22.926222-20.252444 35.100444-14.051556l56.945778 29.013334c12.231111 6.257778 16.497778 22.584889 9.329778 36.693333z" fill="#000000" p-id="8444"></path></svg>