<?xml version="1.0" standalone="no"?><!DOCTYPE svg PUBLIC "-//W3C//DTD SVG 1.1//EN" "http://www.w3.org/Graphics/SVG/1.1/DTD/svg11.dtd"><svg t="1563783097367" class="icon" viewBox="0 0 1024 1024" version="1.1" xmlns="http://www.w3.org/2000/svg" p-id="3318" xmlns:xlink="http://www.w3.org/1999/xlink" width="64" height="64"><defs><style type="text/css"></style></defs><path d="M343.39 127.99H190.56c-51.03 0-92.55 41.52-92.55 92.55h0.01c0 0.17-0.01 0.33-0.01 0.5v582.39c0 0.12 0.01 0.23 0.01 0.34 0.37 50.39 41.21 91.32 91.56 91.85v0.01h98.49c17.67 0 32-14.33 32-32s-14.33-32-32-32h-97.5c-15.74 0-28.55-12.81-28.55-28.55V221.04c0-0.17-0.01-0.33-0.01-0.5H162c0-15.74 12.81-28.55 28.55-28.55h152.84c17.67 0 32-14.33 32-32s-14.32-32-32-32z" fill="#3E89D3" p-id="3319"></path><path d="M842.39 136.08l-0.03 646.08c0 1.63-1.07 6.02-5.12 11.01-4.16 5.13-8.96 7.73-11.8 8.4L439.39 892.5l0.03-646.08c0-1.63 1.07-6.02 5.12-11.01 4.16-5.13 8.96-7.73 11.8-8.4l386.05-90.93m13.03-67.06c-4.9 0-10.02 0.59-15.27 1.83l-398.48 93.86c-36.58 8.62-66.24 45.2-66.24 81.71l-0.03 660.8c0 31.26 21.74 52.33 50.96 52.33 4.9 0 10.02-0.59 15.27-1.83l398.48-93.86c36.58-8.62 66.24-45.2 66.24-81.71l0.03-660.8c0.01-31.26-21.74-52.33-50.96-52.33z" fill="#5AC390" p-id="3320"></path><path d="M512.33 662c-17.67 0-32-14.33-32-32s14.33-32 32-32 32 14.33 32 32-14.32 32-32 32z" fill="#5AC390" p-id="3321"></path></svg>