<?xml version="1.0" standalone="no"?><!DOCTYPE svg PUBLIC "-//W3C//DTD SVG 1.1//EN" "http://www.w3.org/Graphics/SVG/1.1/DTD/svg11.dtd"><svg t="1569740643810" class="icon" viewBox="0 0 1024 1024" version="1.1" xmlns="http://www.w3.org/2000/svg" p-id="4371" xmlns:xlink="http://www.w3.org/1999/xlink" width="128" height="128"><defs><style type="text/css"></style></defs><path d="M964.664889 818.460444c2.360889-1.166222 0.341333-484.437333 0.341333-484.437333h-907.377778v603.534222a28.444444 28.444444 0 0 0 28.444445 28.444445H965.006222" fill="#FFFFFF" p-id="4372"></path><path d="M965.176889 75.093333c0-10.069333-12.629333-18.318222-28.444445-18.318222H85.902222c-15.644444 0-28.444444 8.135111-28.444444 18.318222v123.904h907.377778V75.093333h0.341333z" fill="#56ACE0" p-id="4373"></path><path d="M908.572444 880.810667V305.578667H114.375111v575.232z" fill="#FFC10D" p-id="4374"></path><path d="M633.486222 369.777778h-50.346666a28.444444 28.444444 0 0 0-28.472889 28.444444c0 15.843556 12.629333 28.501333 28.444444 28.501334h50.375111A28.444444 28.444444 0 0 0 661.959111 398.222222a28.444444 28.444444 0 0 0-28.444444-28.472889zM826.908444 369.777778h-50.346666a28.444444 28.444444 0 0 0-28.472889 28.444444c0 15.843556 12.629333 28.501333 28.444444 28.501334h50.375111A28.444444 28.444444 0 0 0 855.381333 398.222222a28.444444 28.444444 0 0 0-28.444444-28.472889zM249.486222 497.777778h-50.346666A28.444444 28.444444 0 0 0 170.666667 526.222222a28.444444 28.444444 0 0 0 28.444444 28.501334h50.375111A28.444444 28.444444 0 0 0 277.959111 526.222222c-0.170667-15.672889-12.8-28.472889-28.444444-28.472889zM249.486222 369.777778h-50.346666A28.444444 28.444444 0 0 0 170.666667 398.222222a28.444444 28.444444 0 0 0 28.444444 28.501334h50.375111A28.444444 28.444444 0 0 0 277.959111 398.222222c-0.170667-15.672889-12.8-28.472889-28.444444-28.472889zM440.064 497.777778h-50.346667a28.444444 28.444444 0 0 0-28.472889 28.444444 28.444444 28.444444 0 0 0 28.444445 28.501334h50.375111a28.444444 28.444444 0 0 0 28.472889-28.472889 28.444444 28.444444 0 0 0-28.444445-28.472889zM440.064 369.777778h-50.346667a28.444444 28.444444 0 0 0-28.472889 28.444444c0 15.843556 12.629333 28.501333 28.444445 28.501334h50.375111A28.444444 28.444444 0 0 0 468.536889 398.222222c0-15.843556-12.629333-28.472889-28.444445-28.472889zM633.486222 497.777778h-50.346666a28.444444 28.444444 0 0 0-28.472889 28.444444 28.444444 28.444444 0 0 0 28.444444 28.501334h50.375111a28.444444 28.444444 0 0 0 28.472889-28.472889c0-15.672889-12.8-28.472889-28.444444-28.472889zM826.908444 497.777778h-50.346666a28.444444 28.444444 0 0 0-28.472889 28.444444 28.444444 28.444444 0 0 0 28.444444 28.501334h50.375111a28.444444 28.444444 0 0 0 28.472889-28.472889c0-15.672889-12.8-28.472889-28.444444-28.472889zM249.486222 625.777778h-50.346666A28.444444 28.444444 0 0 0 170.666667 654.222222a28.444444 28.444444 0 0 0 28.444444 28.501334h50.375111A28.444444 28.444444 0 0 0 277.959111 654.222222c-0.170667-15.672889-12.8-28.472889-28.444444-28.472889zM440.064 625.777778h-50.346667a28.444444 28.444444 0 0 0-28.472889 28.444444 28.444444 28.444444 0 0 0 28.444445 28.501334h50.375111A28.444444 28.444444 0 0 0 468.536889 654.222222a28.444444 28.444444 0 0 0-28.444445-28.472889zM633.486222 625.777778h-50.346666a28.444444 28.444444 0 0 0-28.472889 28.444444 28.444444 28.444444 0 0 0 28.444444 28.501334h50.375111A28.444444 28.444444 0 0 0 661.959111 654.222222c0-15.672889-12.8-28.472889-28.444444-28.472889zM826.908444 625.777778h-50.346666a28.444444 28.444444 0 0 0-28.472889 28.444444 28.444444 28.444444 0 0 0 28.444444 28.501334h50.375111A28.444444 28.444444 0 0 0 855.381333 654.222222c0-15.672889-12.8-28.472889-28.444444-28.472889zM249.486222 753.777778h-50.346666A28.444444 28.444444 0 0 0 170.666667 782.222222a28.444444 28.444444 0 0 0 28.444444 28.501334h50.375111A28.444444 28.444444 0 0 0 277.959111 782.222222c-0.170667-15.843556-12.8-28.472889-28.444444-28.472889zM440.064 753.777778h-50.346667a28.444444 28.444444 0 0 0-28.472889 28.444444 28.444444 28.444444 0 0 0 28.444445 28.501334h50.375111a28.444444 28.444444 0 0 0 28.472889-28.472889c0-15.843556-12.629333-28.472889-28.444445-28.472889z" fill="#194F82" p-id="4375"></path><path d="M936.874667 0H85.902222A85.162667 85.162667 0 0 0 1.024 85.219556v852.679111a85.333333 85.333333 0 0 0 85.219556 85.219555h851.626666c49.834667 0 84.252444-43.605333 84.252445-84.508444V85.219556C1021.781333 38.229333 983.722667 0 936.874667 0zM57.6 74.24c0-9.614222 12.629333-17.464889 28.472889-17.464889h850.631111c15.644444 0 28.472889 7.736889 28.472889 17.436445v117.703111H57.6V74.24z m907.093333 744.220444s0 80.241778 0.113778 120.376889c0.028444 11.434667-12.032 27.363556-25.315555 27.363556H85.902222a28.444444 28.444444 0 0 1-28.444444-28.472889V248.689778h907.377778c0.341333 0 0 568.604444-0.170667 569.770666z" fill="#194F82" p-id="4376"></path></svg>