<?xml version="1.0" standalone="no"?><!DOCTYPE svg PUBLIC "-//W3C//DTD SVG 1.1//EN" "http://www.w3.org/Graphics/SVG/1.1/DTD/svg11.dtd"><svg t="1573646899843" class="icon" viewBox="0 0 1024 1024" version="1.1" xmlns="http://www.w3.org/2000/svg" p-id="2050" xmlns:xlink="http://www.w3.org/1999/xlink" width="128" height="128"><defs><style type="text/css"></style></defs><path d="M773.130901 472.196129c22.016 20.876387 21.190194 54.734452-0.660646 75.47871l-51.910193 48.507871-1.816774 1.569032c-10.884129 8.786581-24.146581 13.873548-38.31742 13.080774-14.649806-0.379871-28.804129-6.738581-37.954064-17.127226l-52.917678-56.386064v433.944774c0 29.464774-25.38529 52.736-54.470193 52.736h-74.801548a55.444645 55.444645 0 0 1-36.99613-14.104774 55.494194 55.494194 0 0 1-36.830967 14.104774h-74.801549c-29.497806 0-54.470194-23.238194-54.470193-52.736V537.30271L204.976062 592.929032a53.446194 53.446194 0 0 1-38.746839 17.903484c-14.798452 0.792774-28.820645-4.591484-40.035097-14.649806l-52.81858-49.383226c-20.248774-20.430452-21.041548-53.181935-0.72671-73.661936l153.930323-158.604387c38.466065-39.357935 92.37471-61.836387 148.925935-61.836387h95.281549c57.04671 0 111.351742 22.346323 149.504 61.952l152.87329 157.530839z m-200.307613-111.582968l-0.082581-0.08258c-25.517419-26.508387-62.596129-41.785806-101.970581-41.785807h-95.281548c-38.845935 0-75.693419 15.376516-101.574193 41.868387l-144.136259 148.513033 33.692904 31.496258 159.777032-170.19871V957.935484h68.129032V637.027097h63.983484V957.935484h68.129032V370.423742l57.112775 60.845419 102.647741 109.353291 33.70942-31.496258-144.136258-148.513033z" fill="#515151" p-id="2051"></path><path d="M429.430255 280.774194a140.387097 140.387097 0 1 1 0-280.774194 140.387097 140.387097 0 0 1 0 280.774194z m0-66.064517a74.322581 74.322581 0 1 0 0-148.645161 74.322581 74.322581 0 0 0 0 148.645161z" fill="#515151" p-id="2052"></path><path d="M916.656062 941.419355v-148.645161h-66.064516a16.516129 16.516129 0 0 1-16.516129-16.516129v-16.51613a16.516129 16.516129 0 0 1 16.516129-16.516129h66.064516V561.548387h-66.064516a16.516129 16.516129 0 0 1-16.516129-16.516129v-16.516129a16.516129 16.516129 0 0 1 16.516129-16.516129h66.064516V330.322581h-66.064516a16.516129 16.516129 0 0 1-16.516129-16.516129v-16.516129a16.516129 16.516129 0 0 1 16.516129-16.516129h66.064516V82.580645h-66.064516a16.516129 16.516129 0 0 1-16.516129-16.516129V49.548387a16.516129 16.516129 0 0 1 16.516129-16.516129h90.838709A24.774194 24.774194 0 0 1 966.204449 57.806452v908.387096a24.774194 24.774194 0 0 1-24.774194 24.774194H850.591546a16.516129 16.516129 0 0 1-16.516129-16.516129v-16.516129a16.516129 16.516129 0 0 1 16.516129-16.516129h66.064516z" fill="#FFE200" p-id="2053"></path></svg>