<?xml version="1.0" standalone="no"?><!DOCTYPE svg PUBLIC "-//W3C//DTD SVG 1.1//EN" "http://www.w3.org/Graphics/SVG/1.1/DTD/svg11.dtd"><svg t="1607248076340" class="icon" viewBox="0 0 1024 1024" version="1.1" xmlns="http://www.w3.org/2000/svg" p-id="8066" xmlns:xlink="http://www.w3.org/1999/xlink" width="128" height="128"><defs><style type="text/css"></style></defs><path d="M640 0a115.2512 115.2512 0 0 1 107.0336 72.5248l1.6128 4.2496L883.2 76.8a76.8 76.8 0 0 1 76.8 76.8v793.6a76.8 76.8 0 0 1-76.8 76.8H140.8a76.8 76.8 0 0 1-76.8-76.8V153.6a76.8 76.8 0 0 1 76.8-76.8l134.5536-0.0256-0.256 0.7168A115.2512 115.2512 0 0 1 384 0h256z m0 230.4h-256a115.2512 115.2512 0 0 1-107.0592-72.576L275.3536 153.6 140.8 153.6v793.6h742.4V153.6h-134.5536l0.256-0.768A115.2512 115.2512 0 0 1 640 230.4z m0-153.6h-256a38.4 38.4 0 0 0-3.6864 76.6208L384 153.6h256a38.4 38.4 0 0 0 3.6864-76.6208L640 76.8z" fill="#444444" p-id="8067"></path><path d="M671.872 437.376a192.0768 192.0768 0 0 1-38.912 239.744l46.6944 80.9216a38.4 38.4 0 1 1-66.5088 38.4l-46.72-80.896a192 192 0 1 1 105.4464-278.144zM448 433.6128a115.2 115.2 0 1 0 115.2 199.5264 115.2 115.2 0 0 0-115.2-199.5264z" fill="#3258ED" p-id="8068"></path></svg>