<?xml version="1.0" standalone="no"?>
<!DOCTYPE svg PUBLIC "-//W3C//DTD SVG 1.1//EN" "http://www.w3.org/Graphics/SVG/1.1/DTD/svg11.dtd"><svg t="1602052614143" class="icon" viewBox="0 0 1024 1024" version="1.1" xmlns="http://www.w3.org/2000/svg" p-id="27971" xmlns:xlink="http://www.w3.org/1999/xlink" width="200" height="200" style="filter:brightness(98%);">
	<defs>
		<style type="text/css"></style>
	</defs>
	<path d="M102.4 51.2m68.266667 0l716.8 0q68.266667 0 68.266666 68.266667l0 836.266666q0 68.266667-68.266666 68.266667l-716.8 0q-68.266667 0-68.266667-68.266667l0-836.266666q0-68.266667 68.266667-68.266667Z" fill="#F9AE7A" p-id="27972"></path>
	<path d="M0 0m68.266667 0l716.8 0q68.266667 0 68.266666 68.266667l0 836.266666q0 68.266667-68.266666 68.266667l-716.8 0q-68.266667 0-68.266667-68.266667l0-836.266666q0-68.266667 68.266667-68.266667Z" fill="#FF8A39" p-id="27973"></path>
	<path d="M102.4 119.466667h273.066667a17.066667 17.066667 0 0 1 0 34.133333H102.4a17.066667 17.066667 0 0 1 0-34.133333z m0 119.466666h341.333333a17.066667 17.066667 0 0 1 0 34.133334H102.4a17.066667 17.066667 0 0 1 0-34.133334z m0 119.466667h631.466667a17.066667 17.066667 0 0 1 0 34.133333H102.4a17.066667 17.066667 0 0 1 0-34.133333z" fill="#DC7A35" p-id="27974"></path>
	<path d="M426.666667 887.466667h494.933333v51.2H426.666667z" fill="#FFE600" p-id="27975"></path>
	<path d="M426.666667 938.666667h494.933333v34.133333H426.666667z" fill="#FFD300" p-id="27976"></path>
	<path d="M921.6 887.466667l68.266667 34.133333v68.266667l-68.266667 34.133333v-136.533333z" fill="#F6F2DF" p-id="27977"></path>
	<path d="M426.666667 972.8h494.933333v51.2H426.666667z" fill="#FEBE00" p-id="27978"></path>
	<path d="M324.266667 887.466667h102.4v51.2H256v-17.066667c0-37.717333 30.549333-34.133333 68.266667-34.133333z" fill="#FF6241" p-id="27979"></path>
	<path d="M256 938.666667h170.666667v34.133333H256z" fill="#F75836" p-id="27980"></path>
	<path d="M256 972.8h170.666667v51.2h-119.466667a51.2 51.2 0 0 1-51.2-51.2z" fill="#EA5131" p-id="27981"></path>
	<path d="M358.4 563.2h51.2v256h-51.2V563.2z m-119.466667 102.4h51.2v153.6h-51.2v-153.6z m-119.466666 68.266667h51.2v85.333333H119.466667v-85.333333z" fill="#FFFFFF" p-id="27982"></path>
	<path d="M477.866667 494.933333h51.2v324.266667h-51.2V494.933333z m119.466666 170.666667h51.2v153.6h-51.2v-153.6z m170.666667 68.266667h-51.2v85.333333h51.2v-85.333333z" fill="#FFFFFF" p-id="27983"></path>
	<path d="M989.866667 921.6l34.133333 34.133333-34.133333 34.133334v-68.266667z" fill="#5E504D" p-id="27984"></path>
</svg>