<?xml version="1.0" encoding="utf-8"?>
<!-- Generator: Adobe Illustrator 23.0.3, SVG Export Plug-In . SVG Version: 6.00 Build 0)  -->
<svg version="1.1" id="图层_1" xmlns="http://www.w3.org/2000/svg" xmlns:xlink="http://www.w3.org/1999/xlink" x="0px" y="0px"
	 viewBox="0 0 128 128" style="enable-background:new 0 0 128 128;" xml:space="preserve">
<style type="text/css">
	.st0{fill:#268EED;}
	.st1{fill:#465161;}
	.st2{fill:#EFBB24;}
	.st3{fill:#EA2837;}
</style>
<path class="st0" d="M14.2,31.2H7.1c-0.6,0-1.2-0.5-1.2-1.2V13.4c0-0.6,0.5-1.2,1.2-1.2h7.1c0.6,0,1.2,0.5,1.2,1.2V30
	C15.4,30.7,14.9,31.2,14.2,31.2z M14.2,63.3H7.1c-0.6,0-1.2-0.5-1.2-1.2V45.5c0-0.6,0.5-1.2,1.2-1.2h7.1c0.6,0,1.2,0.5,1.2,1.2v16.6
	C15.4,62.8,14.9,63.3,14.2,63.3z M14.2,93.8H7.1c-0.6,0-1.2-0.5-1.2-1.2V76c0-0.6,0.5-1.2,1.2-1.2h7.1c0.6,0,1.2,0.5,1.2,1.2v16.6
	C15.4,93.3,14.9,93.8,14.2,93.8z M23.7,93.8h-7.2c-0.6,0-1.2-0.5-1.2-1.2V76c0-0.6,0.5-1.2,1.2-1.2h7.1c0.6,0,1.2,0.5,1.2,1.2v16.6
	C24.9,93.3,24.4,93.8,23.7,93.8z M33.2,93.8h-7.1c-0.6,0-1.2-0.5-1.2-1.2V76c0-0.6,0.5-1.2,1.2-1.2h7.1c0.6,0,1.2,0.5,1.2,1.2v16.6
	C34.4,93.3,33.8,93.8,33.2,93.8z"/>
<path class="st0" d="M42.7,93.8h-7.1c-0.6,0-1.2-0.5-1.2-1.2V76c0-0.6,0.5-1.2,1.2-1.2h7.1c0.6,0,1.2,0.5,1.2,1.2v16.6
	C43.8,93.3,43.3,93.8,42.7,93.8z M52.2,93.8h-7.1c-0.6,0-1.2-0.5-1.2-1.2V76c0-0.6,0.5-1.2,1.2-1.2h7.1c0.6,0,1.2,0.5,1.2,1.2v16.6
	C53.4,93.3,52.8,93.8,52.2,93.8z M91.2,93.8h-7.1c-0.6,0-1.2-0.5-1.2-1.2V76c0-0.6,0.5-1.2,1.2-1.2h7.1c0.6,0,1.2,0.5,1.2,1.2v16.6
	C92.4,93.3,91.9,93.8,91.2,93.8z M27.9,63.3h-7.1c-0.6,0-1.2-0.5-1.2-1.2V45.5c0-0.6,0.5-1.2,1.2-1.2h7.1c0.6,0,1.2,0.5,1.2,1.2
	v16.6C29.1,62.8,28.6,63.3,27.9,63.3z M41.6,63.3h-7.1c-0.6,0-1.2-0.5-1.2-1.2V45.5c0-0.6,0.5-1.2,1.2-1.2h7.1
	c0.6,0,1.2,0.5,1.2,1.2v16.6C42.8,62.8,42.2,63.3,41.6,63.3z M55.3,63.3h-7.1c-0.6,0-1.2-0.5-1.2-1.2V45.5c0-0.6,0.5-1.2,1.2-1.2
	h7.1c0.6,0,1.2,0.5,1.2,1.2v16.6C56.4,62.8,55.9,63.3,55.3,63.3z M23.7,31.2h-7.2c-0.6,0-1.2-0.5-1.2-1.2V13.4
	c0-0.6,0.5-1.2,1.2-1.2h7.1c0.6,0,1.2,0.5,1.2,1.2V30C24.9,30.7,24.4,31.2,23.7,31.2z M72.6,31.2h-7.1c-0.6,0-1.2-0.5-1.2-1.2V13.4
	c0-0.6,0.5-1.2,1.2-1.2h7.1c0.6,0,1.2,0.5,1.2,1.2V30C73.7,30.7,73.2,31.2,72.6,31.2z M92.8,31.2h-7.1c-0.6,0-1.2-0.5-1.2-1.2V13.4
	c0-0.6,0.5-1.2,1.2-1.2h7.1c0.6,0,1.2,0.5,1.2,1.2V30C93.9,30.7,93.4,31.2,92.8,31.2z M98.8,62.7h-7.1c-0.6,0-1.2-0.5-1.2-1.2V44.9
	c0-0.6,0.5-1.2,1.2-1.2h7.1c0.6,0,1.2,0.5,1.2,1.2v16.6C99.9,62.2,99.4,62.7,98.8,62.7z M111.4,62.7h-7.1c-0.6,0-1.2-0.5-1.2-1.2
	V44.9c0-0.6,0.5-1.2,1.2-1.2h7.1c0.6,0,1.2,0.5,1.2,1.2v16.6C112.6,62.2,112.1,62.7,111.4,62.7z M97.5,31.2h-2.4
	c-0.6,0-1.2-0.5-1.2-1.2V13.4c0-0.6,0.5-1.2,1.2-1.2h2.4c0.6,0,1.2,0.5,1.2,1.2V30C98.7,30.7,98.1,31.2,97.5,31.2z M103,31.2h-2.4
	c-0.6,0-1.2-0.5-1.2-1.2V13.4c0-0.6,0.5-1.2,1.2-1.2h2.4c0.6,0,1.2,0.5,1.2,1.2V30C104.2,30.7,103.7,31.2,103,31.2z M108.5,31.2
	h-2.4c-0.6,0-1.2-0.5-1.2-1.2V13.4c0-0.6,0.5-1.2,1.2-1.2h2.4c0.6,0,1.2,0.5,1.2,1.2V30C109.7,30.7,109.2,31.2,108.5,31.2z
	 M114,31.2h-2.4c-0.6,0-1.2-0.5-1.2-1.2V13.4c0-0.6,0.5-1.2,1.2-1.2h2.4c0.6,0,1.2,0.5,1.2,1.2V30C115.2,30.7,114.7,31.2,114,31.2z
	 M68.5,63.3h-2.4c-0.6,0-1.2-0.5-1.2-1.2V45.5c0-0.6,0.5-1.2,1.2-1.2h2.4c0.6,0,1.2,0.5,1.2,1.2v16.6C69.6,62.8,69.1,63.3,68.5,63.3
	z M74,63.3h-2.4c-0.6,0-1.2-0.5-1.2-1.2V45.5c0-0.6,0.5-1.2,1.2-1.2H74c0.6,0,1.2,0.5,1.2,1.2v16.6C75.2,62.8,74.6,63.3,74,63.3z
	 M79.5,63.3h-2.4c-0.6,0-1.2-0.5-1.2-1.2V45.5c0-0.6,0.5-1.2,1.2-1.2h2.4c0.6,0,1.2,0.5,1.2,1.2v16.6C80.6,62.8,80.1,63.3,79.5,63.3
	z M85,63.3h-2.4c-0.6,0-1.2-0.5-1.2-1.2V45.5c0-0.6,0.5-1.2,1.2-1.2H85c0.6,0,1.2,0.5,1.2,1.2v16.6C86.2,62.8,85.6,63.3,85,63.3z
	 M107.8,93.8h-2.4c-0.6,0-1.2-0.5-1.2-1.2V76c0-0.6,0.5-1.2,1.2-1.2h2.4c0.6,0,1.2,0.5,1.2,1.2v16.6C109,93.3,108.5,93.8,107.8,93.8
	z"/>
<path class="st0" d="M103.5,93.8h-2.4c-0.6,0-1.2-0.5-1.2-1.2V76c0-0.6,0.5-1.2,1.2-1.2h2.4c0.6,0,1.2,0.5,1.2,1.2v16.6
	C104.7,93.3,104.2,93.8,103.5,93.8z M119.6,31.2h-2.4c-0.6,0-1.2-0.5-1.2-1.2V13.4c0-0.6,0.5-1.2,1.2-1.2h2.4c0.6,0,1.2,0.5,1.2,1.2
	V30C120.7,30.7,120.2,31.2,119.6,31.2z M29,31.2h-2.4c-0.6,0-1.2-0.5-1.2-1.2V13.4c0-0.6,0.5-1.2,1.2-1.2H29c0.6,0,1.2,0.5,1.2,1.2
	V30C30.2,30.7,29.7,31.2,29,31.2z M36.9,31.2h-2.4c-0.6,0-1.2-0.5-1.2-1.2V13.4c0-0.6,0.5-1.2,1.2-1.2h2.4c0.6,0,1.2,0.5,1.2,1.2V30
	C38,30.7,37.5,31.2,36.9,31.2z M44.7,31.2h-2.4c-0.6,0-1.2-0.5-1.2-1.2V13.4c0-0.6,0.5-1.2,1.2-1.2h2.4c0.6,0,1.2,0.5,1.2,1.2V30
	C45.8,30.7,45.3,31.2,44.7,31.2z"/>
<path class="st1" d="M122.6,32H65.3c-1.5,0-2.7-1.2-2.7-2.7V3.4c0-1.5,1.2-2.7,2.7-2.7v1.5c-0.6,0-1.1,0.5-1.1,1.1v25.9
	c0,0.6,0.5,1.1,1.1,1.1h57.2c0.6,0,1.1-0.5,1.1-1.1V3.4c0-0.6-0.5-1.1-1.1-1.1V0.7c1.5,0,2.7,1.2,2.7,2.7v25.8
	C125.2,30.7,124,32,122.6,32z"/>
<path class="st1" d="M60.7,32H5.1c-1.5,0-2.7-1.2-2.7-2.7V3.4c0-1.5,1.2-2.7,2.7-2.7v1.5C4.5,2.2,4,2.8,4,3.4v25.9
	c0,0.6,0.5,1.1,1.1,1.1h55.6c0.6,0,1.1-0.5,1.1-1.1V3.4c0-0.6-0.5-1.1-1.1-1.1V0.7c1.5,0,2.7,1.2,2.7,2.7v25.8
	C63.4,30.7,62.2,32,60.7,32z M122.6,62.9H65.3c-1.5,0-2.7-1.2-2.7-2.7V34.4c0-1.5,1.2-2.7,2.7-2.7h57.2c1.5,0,2.7,1.2,2.7,2.7h-1.5
	c0-0.6-0.5-1.1-1.1-1.1H65.3c-0.6,0-1.1,0.5-1.1,1.1v25.9c0,0.6,0.5,1.1,1.1,1.1h57.2c0.6,0,1.1-0.5,1.1-1.1h1.5
	C125.2,61.7,124,62.9,122.6,62.9z M122.9,94.6h-58c-1.3,0-2.3-1-2.3-2.3V65.7c0-1.3,1-2.3,2.3-2.3h58c1.3,0,2.3,1,2.3,2.3v26.6
	C125.2,93.5,124.2,94.6,122.9,94.6z M64.9,64.9c-0.4,0-0.8,0.3-0.8,0.8v26.6c0,0.4,0.3,0.8,0.8,0.8h58c0.4,0,0.8-0.3,0.8-0.8V65.7
	c0-0.4-0.3-0.8-0.8-0.8H64.9z"/>
<path class="st1" d="M122.9,125.1h-58c-1.3,0-2.3-1-2.3-2.3V96.2c0-1.3,1-2.3,2.3-2.3h58c1.3,0,2.3,1,2.3,2.3v26.6
	C125.2,124,124.2,125.1,122.9,125.1z M64.9,95.4c-0.4,0-0.8,0.3-0.8,0.8v26.6c0,0.4,0.3,0.8,0.8,0.8h58c0.4,0,0.8-0.3,0.8-0.8V96.2
	c0-0.4-0.3-0.8-0.8-0.8H64.9z"/>
<path class="st1" d="M62.7,124.8h-58c-1.3,0-2.3-1-2.3-2.3V95.9c0-1.3,1-2.3,2.3-2.3h58c1.3,0,2.3,1,2.3,2.3v26.6
	C65.1,123.8,64,124.8,62.7,124.8z M4.8,95.1c-0.4,0-0.8,0.3-0.8,0.8v26.6c0,0.4,0.3,0.8,0.8,0.8h58c0.4,0,0.8-0.3,0.8-0.8V95.9
	c0-0.4-0.3-0.8-0.8-0.8H4.8z M60.7,62.9H5.1c-1.5,0-2.7-1.2-2.7-2.7H4c0,0.6,0.5,1.1,1.1,1.1h55.6c0.6,0,1.1-0.5,1.1-1.1V34.4
	c0-0.6-0.5-1.1-1.1-1.1H5.1c-0.6,0-1.1,0.5-1.1,1.1H2.5c0-1.5,1.2-2.7,2.7-2.7h55.6c1.5,0,2.7,1.2,2.7,2.7v25.9
	C63.4,61.7,62.2,62.9,60.7,62.9z"/>
<path class="st1" d="M61.1,93.8H4.8c-1.3,0-2.3-1-2.3-2.3V64.8c0-1.3,1-2.3,2.3-2.3h56.3c1.3,0,2.3,1,2.3,2.3v26.6
	C63.4,92.7,62.3,93.8,61.1,93.8z M4.8,64.1c-0.4,0-0.8,0.3-0.8,0.8v26.6c0,0.4,0.3,0.8,0.8,0.8h56.3c0.4,0,0.8-0.3,0.8-0.8V64.8
	c0-0.4-0.3-0.8-0.8-0.8C61.1,64.1,4.8,64.1,4.8,64.1z M122.6,32H65.3c-1.5,0-2.7-1.2-2.7-2.7V3.4c0-1.5,1.2-2.7,2.7-2.7h18.8
	c0.4,0,0.8,0.3,0.8,0.8s-0.3,0.8-0.8,0.8H65.3c-0.6,0-1.1,0.5-1.1,1.1v25.9c0,0.6,0.5,1.1,1.1,1.1h57.2c0.6,0,1.1-0.5,1.1-1.1V3.4
	c0-0.6-0.5-1.1-1.1-1.1H91.7c-0.4,0-0.8-0.3-0.8-0.8s0.3-0.8,0.8-0.8h30.9c1.5,0,2.7,1.2,2.7,2.7v25.9C125.2,30.7,124,32,122.6,32z
	 M35.7,2.3h-7.3c-0.4,0-0.8-0.3-0.8-0.8s0.3-0.8,0.8-0.8h7.3c0.4,0,0.8,0.3,0.8,0.8S36.1,2.3,35.7,2.3z"/>
<path class="st1" d="M60.7,32H5.1c-1.5,0-2.7-1.2-2.7-2.7V3.4c0-1.5,1.2-2.7,2.7-2.7h18.3c0.4,0,0.8,0.3,0.8,0.8s-0.3,0.8-0.8,0.8
	H5.1C4.5,2.3,4,2.8,4,3.4v25.9c0,0.6,0.5,1.1,1.1,1.1h55.6c0.6,0,1.1-0.5,1.1-1.1V3.4c0-0.6-0.5-1.1-1.1-1.1H44.8
	c-0.4,0-0.8-0.3-0.8-0.8s0.3-0.8,0.8-0.8h15.9c1.5,0,2.7,1.2,2.7,2.7v25.9C63.4,30.7,62.2,32,60.7,32z M122.6,62.9H65.3
	c-1.5,0-2.7-1.2-2.7-2.7V34.4c0-1.5,1.2-2.7,2.7-2.7h57.2c1.5,0,2.7,1.2,2.7,2.7v6.2c0,0.4-0.3,0.8-0.8,0.8c-0.4,0-0.8-0.3-0.8-0.8
	v-6.2c0-0.6-0.5-1.1-1.1-1.1H65.3c-0.6,0-1.1,0.5-1.1,1.1v25.9c0,0.6,0.5,1.1,1.1,1.1h57.2c0.6,0,1.1-0.5,1.1-1.1V47.3
	c0-0.4,0.3-0.8,0.8-0.8c0.4,0,0.8,0.3,0.8,0.8v12.9C125.2,61.7,124,62.9,122.6,62.9z M122.9,94.6h-58c-1.3,0-2.3-1-2.3-2.3V65.7
	c0-1.3,1-2.3,2.3-2.3h58c1.3,0,2.3,1,2.3,2.3v26.6C125.2,93.5,124.2,94.6,122.9,94.6z M64.9,64.9c-0.4,0-0.8,0.3-0.8,0.8v26.6
	c0,0.4,0.3,0.8,0.8,0.8h58c0.4,0,0.8-0.3,0.8-0.8V65.7c0-0.4-0.3-0.8-0.8-0.8H64.9z"/>
<path class="st1" d="M122.9,125.1h-58c-1.3,0-2.3-1-2.3-2.3V96.2c0-1.3,1-2.3,2.3-2.3h58c1.3,0,2.3,1,2.3,2.3v26.6
	C125.2,124,124.2,125.1,122.9,125.1z M64.9,95.4c-0.4,0-0.8,0.3-0.8,0.8v26.6c0,0.4,0.3,0.8,0.8,0.8h58c0.4,0,0.8-0.3,0.8-0.8V96.2
	c0-0.4-0.3-0.8-0.8-0.8H64.9z"/>
<path class="st1" d="M62.7,124.8h-58c-1.3,0-2.3-1-2.3-2.3V95.9c0-1.3,1-2.3,2.3-2.3h58c1.3,0,2.3,1,2.3,2.3v26.6
	C65.1,123.8,64,124.8,62.7,124.8z M4.8,95.1c-0.4,0-0.8,0.3-0.8,0.8v26.6c0,0.4,0.3,0.8,0.8,0.8h58c0.4,0,0.8-0.3,0.8-0.8V95.9
	c0-0.4-0.3-0.8-0.8-0.8H4.8z M60.7,62.9H5.1c-1.5,0-2.7-1.2-2.7-2.7V48.5c0-0.4,0.3-0.8,0.8-0.8S4,48.1,4,48.5v11.7
	c0,0.6,0.5,1.1,1.1,1.1h55.6c0.6,0,1.1-0.5,1.1-1.1V34.4c0-0.6-0.5-1.1-1.1-1.1H5.1c-0.6,0-1.1,0.5-1.1,1.1v7c0,0.4-0.3,0.8-0.8,0.8
	s-0.8-0.3-0.8-0.8v-7c0-1.5,1.2-2.7,2.7-2.7h55.6c1.5,0,2.7,1.2,2.7,2.7v25.9C63.4,61.7,62.2,62.9,60.7,62.9z"/>
<path class="st1" d="M61.1,93.8H4.8c-1.3,0-2.3-1-2.3-2.3V64.8c0-1.3,1-2.3,2.3-2.3h56.3c1.3,0,2.3,1,2.3,2.3v26.6
	C63.4,92.7,62.3,93.8,61.1,93.8z M4.8,64.1c-0.4,0-0.8,0.3-0.8,0.8v26.6c0,0.4,0.3,0.8,0.8,0.8h56.3c0.4,0,0.8-0.3,0.8-0.8V64.8
	c0-0.4-0.3-0.8-0.8-0.8C61.1,64.1,4.8,64.1,4.8,64.1z"/>
<path class="st1" d="M70.1,94.3H57.9c-0.9,0-1.7-0.6-1.9-1.5l-6.8-26.6c-0.3-1.2,0.6-2.4,1.9-2.4h25.7c1.2,0,2.2,1.2,1.9,2.4
	l-6.8,26.6C71.7,93.8,71,94.3,70.1,94.3z"/>
<path class="st2" d="M70.1,95.1H57.9c-1.2,0-2.3-0.8-2.6-2l-6.8-26.6c-0.2-0.8,0-1.7,0.5-2.3c0.5-0.7,1.3-1,2.1-1h25.7
	c0.8,0,1.6,0.4,2.1,1c0.5,0.7,0.7,1.5,0.5,2.3l-6.8,26.6C72.4,94.3,71.3,95.1,70.1,95.1z M51.1,64.7c-0.3,0-0.7,0.2-0.9,0.4
	c-0.2,0.3-0.3,0.6-0.2,1l6.8,26.6c0.1,0.5,0.6,0.9,1.1,0.9h12.2c0.5,0,1-0.3,1.1-0.9l6.8-26.6c0.1-0.3,0-0.7-0.2-1
	c-0.2-0.3-0.6-0.4-0.9-0.4H51.1z"/>
<path class="st3" d="M124.1,81.6H3.8c-0.6,0-1.2-0.5-1.2-1.2V79c0-0.6,0.5-1.2,1.2-1.2h120.3c0.6,0,1.2,0.5,1.2,1.2v1.5
	C125.3,81.1,124.8,81.6,124.1,81.6z"/>
<path class="st3" d="M18,127.5c-0.2,0-0.3,0-0.5-0.1c-0.8-0.3-1.2-1.2-1-2l15.3-44.3c0.3-0.8,1.2-1.2,2-1c0.8,0.3,1.2,1.2,1,2
	l-15.3,44.3C19.2,127.1,18.6,127.5,18,127.5z M110,127.5c-0.6,0-1.2-0.4-1.5-1L93.6,82.1c-0.3-0.8,0.2-1.7,1-1.9
	c0.8-0.3,1.7,0.2,1.9,1l14.9,44.3c0.3,0.8-0.2,1.7-1,1.9C110.3,127.4,110.1,127.5,110,127.5z"/>
<path class="st2" d="M79.3,95.3H48.6c-0.4,0-0.8-0.3-0.8-0.8c0-0.4,0.3-0.8,0.8-0.8h30.7c0.4,0,0.8,0.3,0.8,0.8
	C80.1,94.9,79.7,95.3,79.3,95.3z"/>
<path class="st2" d="M49.2,123.2h-0.1c-0.4-0.1-0.7-0.5-0.7-0.9l4.1-27.9c0.1-0.4,0.5-0.7,0.9-0.7c0.4,0.1,0.7,0.5,0.7,0.9
	l-4.1,27.9C49.9,122.9,49.6,123.2,49.2,123.2z M79.3,123.2c-0.4,0-0.7-0.3-0.8-0.7l-4.1-27.9c-0.1-0.4,0.2-0.8,0.7-0.9
	c0.4-0.1,0.8,0.2,0.9,0.7l4.1,27.9c0.1,0.4-0.2,0.8-0.7,0.9H79.3z"/>
</svg>
