<?xml version="1.0" standalone="no"?><!DOCTYPE svg PUBLIC "-//W3C//DTD SVG 1.1//EN" "http://www.w3.org/Graphics/SVG/1.1/DTD/svg11.dtd"><svg class="icon" width="128px" height="128.00px" viewBox="0 0 1024 1024" version="1.1" xmlns="http://www.w3.org/2000/svg"><path d="M217.6 204.8m-115.2 0a115.2 115.2 0 1 0 230.4 0 115.2 115.2 0 1 0-230.4 0Z" fill="#CAF0DE" /><path d="M998.4 649.2928v347.136s-407.552 1.1648-595.8016 1.9712c-22.7072 0.1024-31.6544-5.376-35.2768-29.1968-9.6-63.2064-35.264-191.3856-35.264-191.3856zM560.7936 623.36L38.4 724.032v-391.424l183.3472 268.8S366.464 381.12 435.2 268.8c47.4624 0 57.9584 5.6192 65.3696 45.6192C518.4 410.7648 560.7936 623.36 560.7936 623.36z m108.5184-20.864L601.6 268.8h396.8l-0.7296 270.2592z m-444.3904-75.2896S94.5536 352.5632 57.472 251.4432a166.9376 166.9376 0 0 1 62.72-192.2688 180.5824 180.5824 0 0 1 211.5712 1.28A167.5392 167.5392 0 0 1 392.192 253.824c-37.9776 99.712-167.2704 273.3824-167.2704 273.3824z m88.32-323.0848a88.4864 88.4864 0 1 0-176.9472-1.8816 90.624 90.624 0 0 0 87.7824 88.7424 89.4208 89.4208 0 0 0 89.1776-86.8608zM38.9376 834.3168l186.2016-35.84L256 998.4H38.4z" fill="#00C367" /></svg>