<?xml version="1.0" standalone="no"?><!DOCTYPE svg PUBLIC "-//W3C//DTD SVG 1.1//EN" "http://www.w3.org/Graphics/SVG/1.1/DTD/svg11.dtd"><svg t="1602052141010" class="icon" viewBox="0 0 1024 1024" version="1.1" xmlns="http://www.w3.org/2000/svg" p-id="8220" xmlns:xlink="http://www.w3.org/1999/xlink" width="200" height="200"><defs><style type="text/css"></style></defs><path d="M19.393592 757.287412l-3.764186 223.21165s8.509586 30.86231 57.79116 31.694333l700.066904 11.806117L207.419282 632.059364z" fill="#F5C51E" p-id="8221"></path><path d="M709.174972 665.343147l-177.992642-220.368427a288.998837 288.998837 0 0 1-21.001405-26.022232L278.715034 584.599632l613.338563 423.060673s13.906258 10.86794 16.689231-5.82416V481.222226l-148.714045 184.120921a31.780404 31.780404 0 0 1-50.853811 0z" fill="#CCCDCC" p-id="8222"></path><path d="M552.186604 66.507604l-105.965284 1.563629L74.152172 73.565453a60.249931 60.249931 0 0 0-60.249931 60.249931v517.334601l432.319079-301.272609 22.547819-15.713756a243.421199 243.421199 0 0 1-9.625644-67.178673 262.557724 262.557724 0 0 1 93.043109-200.480212z" fill="#44A1DA" p-id="8223"></path><path d="M734.600443 0.003156a279.789205 279.789205 0 0 0-182.413839 66.504448 262.557724 262.557724 0 0 0-93.043109 200.477343 243.421199 243.421199 0 0 0 9.625644 67.178673 277.898505 277.898505 0 0 0 41.411786 84.791737 288.998837 288.998837 0 0 0 21.001405 26.022232l177.992642 220.365558a31.780404 31.780404 0 0 0 50.853811 0l148.714045-184.120921 29.275729-36.247506c42.375785-46.613364 72.041704-105.945201 72.041703-177.989773C1010.063129 118.661092 887.164745 0.003156 734.600443 0.003156z m0 402.595779c-76.279282 0-139.845829-63.569416-139.845828-135.613988a134.322918 134.322918 0 0 1 1.79889-21.870725c10.790476-65.451509 69.235778-113.737525 138.046938-113.737525a136.873499 136.873499 0 0 1 22.464617 1.882093c65.896211 10.954011 117.38408 68.897231 117.384081 133.726157 0 76.282151-63.566547 135.613988-139.848698 135.613988z" fill="#DB4958" p-id="8224"></path></svg>