<?xml version="1.0" standalone="no"?><!DOCTYPE svg PUBLIC "-//W3C//DTD SVG 1.1//EN" "http://www.w3.org/Graphics/SVG/1.1/DTD/svg11.dtd"><svg t="1602052015519" class="icon" viewBox="0 0 1024 1024" version="1.1" xmlns="http://www.w3.org/2000/svg" p-id="6393" xmlns:xlink="http://www.w3.org/1999/xlink" width="200" height="200"><defs><style type="text/css"></style></defs><path d="M512 512m-480 0a480 480 0 1 0 960 0 480 480 0 1 0-960 0Z" fill="#FFFFFF" p-id="6394"></path><path d="M512 32v96a16 16 0 0 1-16-16v32c0 3.808 1.328 7.296 3.536 10.032 7.072 8.8 12.464 18.8 12.464 30.096v241.984L432 464l-144 304 155.456-73.632c31.84-15.088 68.544 8.144 68.544 43.376V992c265.072 0 480-214.928 480-480S777.072 32 512 32zM234.704 244.08a16.24 16.24 0 0 1-5.552 1.088 15.952 15.952 0 0 1-11.312-4.688l-33.536-33.536C113.152 283.344 68.336 384.528 64.4 496h2.384a446.368 446.368 0 0 1 117.52-257.056l33.536 33.536a15.952 15.952 0 0 0 22.624 0 15.984 15.984 0 0 0 0-22.624l-5.76-5.776zM112 528H64.4c0.384 10.784 1.264 21.424 2.384 32H112a16 16 0 1 0 0-32zM234.704 811.92l-27.76 27.76c5.536 5.152 11.232 10.112 17.008 14.992l16.512-16.512a15.984 15.984 0 0 0 0-22.624 15.696 15.696 0 0 0-5.76-3.616z" fill="#E2E5E7" p-id="6395"></path><path d="M496 96.4v-32c-111.472 3.936-212.656 48.752-289.056 119.904l17.008 17.008A445.968 445.968 0 0 1 496 96.4z" fill="#E2E5E7" p-id="6396"></path><path d="M512 0C229.68 0 0 229.696 0 512s229.68 512 512 512c282.304 0 512-229.68 512-512S794.304 0 512 0z m327.68 817.056l-33.536-33.536a15.984 15.984 0 1 0-22.624 22.624l33.536 33.536c-76.4 71.152-177.6 115.968-289.056 119.904V912a16 16 0 1 0-32 0v47.6c-111.472-3.936-212.656-48.752-289.056-119.904l33.536-33.536a15.984 15.984 0 1 0-22.624-22.624l-33.536 33.536C113.152 740.656 68.336 639.472 64.4 528H112a16 16 0 1 0 0-32H64.4c3.936-111.472 48.752-212.656 119.904-289.056l33.536 33.536a15.952 15.952 0 0 0 22.624 0 15.984 15.984 0 0 0 0-22.624l-33.536-33.536C283.344 113.152 384.528 68.352 496 64.4V112a16 16 0 1 0 32 0V64.4c111.472 3.936 212.656 48.752 289.056 119.904l-33.536 33.536a15.984 15.984 0 1 0 22.624 22.624l33.536-33.536c71.152 76.4 115.968 177.6 119.904 289.056H912a16 16 0 1 0 0 32h47.6c-3.952 111.488-48.752 212.672-119.92 289.072z" fill="#576D7E" p-id="6397"></path><path d="M544 480h-64l32-288zM544 544v-64l288 32zM480 480v64l-288-32zM480 544h64l-32 288z" fill="#CAD1D8" p-id="6398"></path><path d="M592 592L432 432l304-144z" fill="#F15642" p-id="6399"></path><path d="M490.672 640l3.376 30.4 37.904-17.968 3.744-33.76z" fill="#AFBAC2" p-id="6400"></path><path d="M432 432l160 160-304 144z" fill="#50BEE8" p-id="6401"></path><path d="M592 592l144-304-224 224z" fill="#C44138" p-id="6402"></path><path d="M512 512L288 736l304-144z" fill="#00A0C5" p-id="6403"></path><path d="M512 512m-32 0a32 32 0 1 0 64 0 32 32 0 1 0-64 0Z" fill="#35495C" p-id="6404"></path><path d="M525.12 482.88c1.808 4.016 2.88 8.432 2.88 13.12a32 32 0 0 1-32 32 31.84 31.84 0 0 1-13.12-2.88A31.936 31.936 0 0 0 544 512c0-12.976-7.76-24.112-18.88-29.12z" fill="#123247" p-id="6405"></path><path d="M528 112V64.4c111.472 3.936 212.656 48.752 289.056 119.904l-33.536 33.536a15.984 15.984 0 1 0 22.624 22.624l33.536-33.536c71.152 76.4 115.968 177.6 119.904 289.056H912a16 16 0 1 0 0 32h47.6c-3.936 111.472-48.752 212.656-119.904 289.056l-33.536-33.536a15.984 15.984 0 1 0-22.624 22.624l33.536 33.536c-76.4 71.152-177.6 115.968-289.056 119.904V912a16 16 0 0 0-16-16v128c282.304 0 512-229.68 512-512S794.304 0 512 0v128a16 16 0 0 0 16-16z" fill="#35495C" p-id="6406"></path></svg>