<?xml version="1.0" standalone="no"?><!DOCTYPE svg PUBLIC "-//W3C//DTD SVG 1.1//EN" "http://www.w3.org/Graphics/SVG/1.1/DTD/svg11.dtd"><svg t="1560393503436" class="icon" style="" viewBox="0 0 1024 1024" version="1.1" xmlns="http://www.w3.org/2000/svg" p-id="11580" xmlns:xlink="http://www.w3.org/1999/xlink" width="128" height="128"><defs><style type="text/css"></style></defs><path d="M992.267784 320.095423H769.010693L594.298746 145.383475c24.146152-40.454286 15.549616-92.28634-20.479983-122.753474-36.029598-30.340715-88.74659-30.214295-124.396929 0.632098s-43.994036 82.804867-19.468625 122.879894L255.999779 320.095423H31.731331c-17.69875 0.12642-31.731331 14.538259-31.731331 31.98417v639.809817C0 1009.335321 14.159 1024 31.731331 1024h960.536453c17.69875-0.12642 31.731331-14.538259 31.731331-31.98417V352.079593c0-17.57233-14.159-31.85775-31.731331-31.98417zM480.015388 186.596279c20.859241 7.458759 43.741197 7.20592 64.726857-0.252839l133.878403 133.878403H346.389824l133.625564-133.625564zM128.063099 512.126862h319.968119v63.96834H128.063099v-63.96834z m511.999558 319.968119h-511.999558v-63.96834h511.999558v63.96834zM831.967676 704.158301H128.063099v-63.96834h704.030997V704.158301z" fill="#3987ff" p-id="11581"></path></svg>