<?xml version="1.0" standalone="no"?><!DOCTYPE svg PUBLIC "-//W3C//DTD SVG 1.1//EN" "http://www.w3.org/Graphics/SVG/1.1/DTD/svg11.dtd"><svg t="1563783069490" class="icon" viewBox="0 0 1024 1024" version="1.1" xmlns="http://www.w3.org/2000/svg" p-id="2540" xmlns:xlink="http://www.w3.org/1999/xlink" width="64" height="64"><defs><style type="text/css"></style></defs><path d="M219.845934 146.077033l584.308132 0 0 730.385164-584.308132 0 0-730.385164Z" fill="#E1EAFF" p-id="2541"></path><path d="M769.825963 1022.53923H219.845934a109.557775 109.557775 0 0 1-109.557774-109.557775v-584.308131a36.519258 36.519258 0 0 1 73.038516 0v584.308131a36.519258 36.519258 0 0 0 36.519258 36.519258h549.980029a109.557775 109.557775 0 0 0 109.557775-109.557774v-657.346648a109.557775 109.557775 0 0 0-109.557775-109.557775H219.845934a36.519258 36.519258 0 0 0-36.519258 36.519259V146.077033a36.519258 36.519258 0 0 1-73.038516 0v-34.328103A109.557775 109.557775 0 0 1 219.845934 0h549.980029A182.596291 182.596291 0 0 1 950.231098 184.787447v657.346647A182.596291 182.596291 0 0 1 769.825963 1022.53923z" fill="#3673FF" p-id="2542"></path><path d="M37.249643 292.154066h146.077033a36.519258 36.519258 0 0 1 36.519258 36.519258 36.519258 36.519258 0 0 1-36.519258 36.519258h-146.077033a36.519258 36.519258 0 0 1-36.519258-36.519258 36.519258 36.519258 0 0 1 36.519258-36.519258zM37.249643 511.269615h146.077033a36.519258 36.519258 0 0 1 36.519258 36.519258 36.519258 36.519258 0 0 1-36.519258 36.519258h-146.077033a36.519258 36.519258 0 0 1-36.519258-36.519258 36.519258 36.519258 0 0 1 36.519258-36.519258zM37.249643 730.385164h146.077033a36.519258 36.519258 0 0 1 36.519258 36.519258 36.519258 36.519258 0 0 1-36.519258 36.519258h-146.077033a36.519258 36.519258 0 0 1-36.519258-36.519258 36.519258 36.519258 0 0 1 36.519258-36.519258z" fill="#FFC700" p-id="2543"></path><path d="M402.442225 219.115549h292.154066a36.519258 36.519258 0 0 1 36.519258 36.519258 36.519258 36.519258 0 0 1-36.519258 36.519259h-292.154066a36.519258 36.519258 0 0 1-36.519258-36.519259 36.519258 36.519258 0 0 1 36.519258-36.519258zM402.442225 365.192582h292.154066a36.519258 36.519258 0 0 1 36.519258 36.519258 36.519258 36.519258 0 0 1-36.519258 36.519258h-292.154066a36.519258 36.519258 0 0 1-36.519258-36.519258 36.519258 36.519258 0 0 1 36.519258-36.519258zM475.480742 730.385164h73.038516a36.519258 36.519258 0 0 1 36.519258 36.519258 36.519258 36.519258 0 0 1-36.519258 36.519258h-73.038516a36.519258 36.519258 0 0 1-36.519258-36.519258 36.519258 36.519258 0 0 1 36.519258-36.519258z" fill="#3673FF" p-id="2544"></path></svg>