<?xml version="1.0" standalone="no"?><!DOCTYPE svg PUBLIC "-//W3C//DTD SVG 1.1//EN" "http://www.w3.org/Graphics/SVG/1.1/DTD/svg11.dtd"><svg t="1607247903220" class="icon" viewBox="0 0 1126 1024" version="1.1" xmlns="http://www.w3.org/2000/svg" p-id="2776" xmlns:xlink="http://www.w3.org/1999/xlink" width="140.75" height="128"><defs><style type="text/css"></style></defs><path d="M641.745455 775.447273c-8.052364 3.956364-20.130909 7.912727-28.16 7.912727-4.049455 0-12.101818 0-16.104728-3.956364-16.104727-3.956364-28.183273-15.825455-36.235636-27.694545-4.026182-7.912727-8.052364-15.825455-8.052364-27.694546l-4.026182-130.56L790.667636 181.992727c8.052364-15.825455 20.130909-23.738182 36.235637-27.694545V79.127273c0-43.52-36.235636-79.127273-80.523637-79.127273H182.923636C138.635636 0 102.4 35.607273 102.4 79.127273V791.272727c0 43.52 36.235636 79.127273 80.500364 79.127273h563.502545c44.264727 0 80.500364-35.607273 80.500364-79.127273v-193.861818l-68.421818 118.690909-116.736 59.345455z" fill="#C1D9FF" p-id="2777"></path><path d="M1113.320727 406.807273l-104.657454-59.345455c-4.026182-3.956364-8.052364-3.956364-16.104728 0-4.002909 0-8.029091 3.956364-12.055272 7.912727L743.028364 758.923636l4.026181 118.690909c0 3.956364 0 7.912727 4.026182 7.912728 4.026182 3.956364 8.029091 7.912727 12.055273 7.912727h16.104727l108.683637-59.345455L1125.399273 430.545455c0-3.956364-4.026182-15.825455-12.101818-23.738182z" fill="#4B8CF1" p-id="2778"></path><path d="M244.549818 560.081455a289.303273 289.303273 0 0 0 27.834182-5.12c2.001455-0.512 4.002909-1.140364 6.027636-1.629091 9.076364-2.373818 18.152727-5.259636 26.903273-8.517819 1.885091-0.605091 3.653818-1.373091 5.422546-2.094545 9.076364-3.514182 17.92-7.517091 26.554181-12.008727 1.419636-0.768 2.839273-1.396364 4.258909-2.141091a297.332364 297.332364 0 0 0 27.601455-16.500364c0.465455-0.232727 0.930909-0.605091 1.303273-0.861091a318.138182 318.138182 0 0 0 76.590545-74.496l1.163637-1.629091c6.749091-9.378909 13.009455-19.130182 18.78109-29.253818 0.232727-0.488727 0.605091-1.000727 0.837819-1.489454A338.338909 338.338909 0 0 0 511.488 237.707636c0-28.113455-3.421091-56.087273-10.146909-83.362909 0-0.232727-0.116364-0.488727-0.116364-0.744727l-157.207272 0c-37.050182 0-72.587636 15.499636-98.769455 43.240727-26.205091 27.764364-40.96 65.396364-40.96 104.494546L204.288 563.2c11.566545 0 23.016727-0.884364 34.210909-2.117818 2.024727-0.256 4.026182-0.768 6.050909-1.000727z" fill="#68A0FF" p-id="2779"></path></svg>