<?xml version="1.0" standalone="no"?>
<!DOCTYPE svg PUBLIC "-//W3C//DTD SVG 1.1//EN" "http://www.w3.org/Graphics/SVG/1.1/DTD/svg11.dtd"><svg t="1602053911567" class="icon" viewBox="0 0 1024 1024" version="1.1" xmlns="http://www.w3.org/2000/svg" p-id="12305" xmlns:xlink="http://www.w3.org/1999/xlink" width="200" height="200" style="filter:hue-rotate(200deg);filter:brightness(110%);">
	<defs>
		<style type="text/css"></style>
	</defs>
	<path d="M853.33225 51.2H170.66729c-34.12992 0-59.72992 25.6-59.72992 59.72992v802.14016c0 34.12992 25.6 59.72992 59.72992 59.72992h682.66496c34.12992 0 59.72992-25.6 59.72992-59.72992V110.92992c0-34.12992-25.6-59.72992-59.72992-59.72992zM251.73737 782.29504h-46.94016c-17.05984 0-25.6-12.8-25.6-25.6s12.8-25.6 25.6-25.6h46.94016c12.8 0 25.6 12.8 25.6 25.6s-12.8 25.6-25.6 25.6z m34.12992-183.47008H204.79721c-12.8 0-25.6-8.52992-25.6-21.32992s12.8-25.6 25.6-25.6h81.07008c17.07008 0 25.6 8.52992 25.6 21.32992s-12.8 25.6-25.6 25.6z m-102.4-209.06496c0-12.80512 8.52992-21.34528 21.32992-25.60512H477.87241c17.07008 0 25.6 12.8 25.6 25.60512 0 12.8-12.8 25.6-25.6 25.6H204.79721c-12.8 0-21.32992-8.53504-21.32992-25.6z m264.53504 409.6l-42.66496-46.94016 315.73504-320 42.67008 46.94016-315.74016 320z m328.54016-341.33504l-42.67008-46.92992 25.6-25.60512 42.67008 46.93504-25.6 25.6z m42.65984-226.13504h-614.4c-12.8 0-21.32992-8.52992-21.32992-21.32992 0-17.07008 8.52992-25.6 21.32992-29.87008h614.4c17.07008 0 25.6 12.8 25.6 25.6s-12.8 25.6-25.6 25.6z" fill="#9B8DC2" p-id="12306"></path>
	<path d="M769.20041 349.87008c-17.05984-17.07008-34.12992 0-34.12992 0l-366.92992 384-42.67008 157.85984L474.80041 836.27008 833.20041 460.8c17.07008-21.32992 8.54016-38.4 8.54016-38.4L769.20041 349.87008z m-320 448l-42.65984-46.94016 315.72992-320 42.67008 46.94016L449.20041 797.87008z m328.54016-341.33504L735.07049 409.6l25.6-25.6 42.67008 46.93504-25.6 25.6z m102.4-456.53504H159.07049S86.54057 0 65.20041 85.32992v853.34016s8.54016 64 81.07008 85.32992h729.6s76.8-17.07008 81.07008-85.32992V85.32992c4.25984 0 8.52992-68.25984-76.8-85.32992z m34.12992 913.07008c0 34.12992-25.6 59.72992-59.72992 59.72992H171.87049c-34.12992 0-59.72992-25.6-59.72992-59.72992V110.92992C112.14057 76.8 137.74057 51.2 171.87049 51.2h682.67008c34.12992 0 59.72992 25.6 59.72992 59.72992v802.14016z" fill="#60519C" p-id="12307"></path>
</svg>