<?xml version="1.0" standalone="no"?><!DOCTYPE svg PUBLIC "-//W3C//DTD SVG 1.1//EN" "http://www.w3.org/Graphics/SVG/1.1/DTD/svg11.dtd"><svg t="1599488063438" class="icon" viewBox="0 0 1024 1024" version="1.1" xmlns="http://www.w3.org/2000/svg" p-id="735" xmlns:xlink="http://www.w3.org/1999/xlink" width="200" height="200"><defs><style type="text/css"></style></defs><path d="M170.666667 870.4v-34.133333H119.466667a85.333333 85.333333 0 0 1-85.333334-85.333334V204.8a85.333333 85.333333 0 0 1 85.333334-85.333333h785.066666a85.333333 85.333333 0 0 1 85.333334 85.333333v546.133333a85.333333 85.333333 0 0 1-85.333334 85.333334H358.4v34.133333h614.4a34.133333 34.133333 0 1 1 0 68.266667H51.2a34.133333 34.133333 0 1 1 0-68.266667h119.466667z m187.733333-102.4h546.133333a17.066667 17.066667 0 0 0 17.066667-17.066667V204.8a17.066667 17.066667 0 0 0-17.066667-17.066667H119.466667a17.066667 17.066667 0 0 0-17.066667 17.066667v546.133333a17.066667 17.066667 0 0 0 17.066667 17.066667h51.2v-34.133333a17.066667 17.066667 0 0 1 17.066666-17.066667h153.6a17.066667 17.066667 0 0 1 17.066667 17.066667v34.133333z m358.4-68.266667h136.533333a17.066667 17.066667 0 0 1 17.066667 17.066667v34.133333H699.733333v-34.133333a17.066667 17.066667 0 0 1 17.066667-17.066667z m-477.866667 93.866667V870.4h51.2v-76.8h-51.2z" fill="#222222" p-id="736"></path><path d="M213.333333 256h597.333334a42.666667 42.666667 0 1 1 0 85.333333h-597.333334a42.666667 42.666667 0 1 1 0-85.333333z m0 153.6h136.533334a42.666667 42.666667 0 1 1 0 85.333333h-136.533334a42.666667 42.666667 0 1 1 0-85.333333z m8.533334 238.933333h34.133333a17.066667 17.066667 0 0 1 17.066667 17.066667v51.2h-68.266667v-51.2a17.066667 17.066667 0 0 1 17.066667-17.066667z" fill="#FFDF32" p-id="737"></path></svg>