<?xml version="1.0" standalone="no"?><!DOCTYPE svg PUBLIC "-//W3C//DTD SVG 1.1//EN" "http://www.w3.org/Graphics/SVG/1.1/DTD/svg11.dtd"><svg t="1563434504121" class="icon" viewBox="0 0 1024 1024" version="1.1" xmlns="http://www.w3.org/2000/svg" p-id="7150" xmlns:xlink="http://www.w3.org/1999/xlink" width="64" height="64"><defs><style type="text/css"></style></defs><path d="M630.927959 816.462397c-3.240776 0-6.609478 0.426418-9.97818 1.19397l-233.335887 55.860748c-21.022404 5.031731-28.399434 21.917881-26.437911 36.458732 2.13209 15.606896 15.137836 31.427001 35.947031 31.427001 3.240776 0 6.609478-0.383776 9.978179-1.19397l233.378529-55.860748c20.979762-5.031731 28.399434-21.917881 26.437911-36.41609a36.074956 36.074956 0 0 0-35.989672-31.469643z m-55.775465 117.009078a36.330807 36.330807 0 0 0-19.785791 6.097776c-15.521612 9.935538-30.403598 15.351045-44.219539 16.075956a23.79412 23.79412 0 0 1-1.790955 0.085284c-7.504955 0-15.990672-2.345299-26.736404-7.334389a146.687765 146.687765 0 0 1-5.969851-3.539268c-5.671358-3.453985-7.249105-4.434746-9.125343-4.690598a39.827434 39.827434 0 0 0-17.312568-3.923045c-17.014075 0-33.260598 10.575164-38.676106 25.073374-4.477388 12.024985-0.213209 24.305822 11.428001 32.83418 26.139419 19.103523 56.670942 29.25227 88.26851 29.25227 28.78321 0 57.353211-8.528358 82.55451-24.73224 14.242359-9.082702 19.871075-24.476389 14.668776-39.998001a35.733822 35.733822 0 0 0-33.30324-25.201299zM774.801366 323.182144a268.046306 268.046306 0 0 0-110.612809-104.472391c-43.963688-22.60015-94.92063-34.539852-147.284751-34.539852a343.138503 343.138503 0 0 0-129.801616 25.45715 296.44574 296.44574 0 0 0-108.73657 75.90239c-55.007912 61.276256-78.162405 149.8859-62.001166 237.088365 15.521612 83.791122 64.94345 154.107437 135.6009 192.911469 6.012493 3.32606 12.323478 5.031731 18.677105 5.031731 16.203881 0 30.744732-11.086866 35.392687-26.992254 4.477388-15.137836-1.876239-29.593404-16.545015-37.652703-94.408928-51.895061-121.230615-177.048722-91.935704-263.227784 28.442075-83.577913 115.473974-139.779795 216.577663-139.779795a252.865828 252.865828 0 0 1 120.036645 29.593404 197.9432 197.9432 0 0 1 97.692346 123.021571 206.556842 206.556842 0 0 1-26.011493 167.49696c-12.792538 19.615224-29.422837 37.610061-45.541434 55.007912-10.319314 11.17215-20.979762 22.728075-30.702091 34.667777-16.545015 20.46806-21.619389 42.385942-26.523195 63.53627-0.852836 3.709836-1.705672 7.547597-2.686433 11.342717l-212.910468 52.619972c-20.979762 5.202299-28.31415 22.216374-26.267345 36.799867a35.904389 35.904389 0 0 0 35.648539 31.128508 42.641792 42.641792 0 0 0 10.23403-1.279254l166.089781-41.021404c6.18306-1.535105 12.195553-2.899642 17.994836-4.264179 45.413509-10.361956 81.275256-18.591821 85.496794-79.569585 1.492463-21.576747 21.320896-41.661031 38.889314-59.400016 4.477388-4.52003 8.741567-8.826851 12.621971-13.09103 21.065045-22.983926 47.332389-54.069793 63.962688-90.912302 35.094195-77.735987 28.953777-164.853169-17.355209-245.403514zM146.133422 470.424253a33.30324 33.30324 0 0 0-10.831015-24.391106 38.54818 38.54818 0 0 0-26.224702-10.106104H37.098359c-20.46806 0-37.098359 15.436329-37.098359 34.49721 0 19.060881 16.630299 34.49721 37.098359 34.497209h71.979346c9.807612 0 19.231448-3.624552 26.224702-10.106104a33.30324 33.30324 0 0 0 10.831015-24.391105z m840.213875-34.49721h-71.979345c-20.254851 0.341134-36.458732 15.69218-36.458732 34.49721 0 18.80503 16.203881 34.156076 36.458732 34.497209h71.979345c9.807612 0 19.231448-3.624552 26.224703-10.106104a33.260598 33.260598 0 0 0 10.831015-24.391105 33.260598 33.260598 0 0 0-10.831015-24.391106 38.505538 38.505538 0 0 0-26.224703-10.106104zM202.122095 230.052469a38.974598 38.974598 0 0 0 35.989673 9.253269 35.904389 35.904389 0 0 0 26.437911-24.561672 32.919464 32.919464 0 0 0-9.978179-33.473807l-50.9143-47.332389a39.102524 39.102524 0 0 0-52.022987 0.426417 32.791538 32.791538 0 0 0-0.426418 48.355793l50.9143 47.332389z m621.845257 480.743567a38.505538 38.505538 0 0 0-26.224702-10.106105 38.505538 38.505538 0 0 0-26.18206 10.106105 33.260598 33.260598 0 0 0-10.873657 24.391105c0 9.167985 3.880403 17.909553 10.873657 24.391105l50.871658 47.332389a38.54818 38.54818 0 0 0 26.224702 10.106105c9.807612 0 19.27409-3.624552 26.224702-10.106105a33.260598 33.260598 0 0 0 10.873657-24.391105 33.260598 33.260598 0 0 0-10.873657-24.391105l-50.9143-47.332389zM513.066045 135.899392c20.46806 0 37.055717-15.436329 37.055717-34.454568V34.49721c0-19.060881-16.630299-34.49721-37.098359-34.49721s-37.098359 15.436329-37.098359 34.49721v66.947614c0 9.125344 3.923045 17.909553 10.916299 24.348463a38.54818 38.54818 0 0 0 26.224702 10.106105zM254.528858 710.838677a38.54818 38.54818 0 0 0-26.18206-10.106104 38.505538 38.505538 0 0 0-26.224703 10.106104l-50.9143 47.33239a32.83418 32.83418 0 0 0 0 48.78221 38.54818 38.54818 0 0 0 26.224703 10.106105c9.807612 0 19.27409-3.624552 26.224702-10.106105l50.871658-47.332389a32.83418 32.83418 0 0 0 0-48.782211zM771.517948 230.052469c14.498209 13.432165 37.951195 13.432165 52.449404 0l50.9143-47.332389a32.791538 32.791538 0 0 0-0.426418-48.398434 39.102524 39.102524 0 0 0-52.022986-0.383776l-50.9143 47.332389a32.83418 32.83418 0 0 0 0 48.78221z" fill="#095DB8" p-id="7151"></path><path d="M323.182144 486.116432c0 98.928958 84.430749 179.095528 188.476722 179.095528 104.173899 0 188.562005-80.16657 188.562005-179.095528 0-98.928958-84.430749-179.095528-188.519364-179.095528-104.131257 0-188.519364 80.16657-188.519363 179.095528z" fill="#095DB8" p-id="7152"></path></svg>