<?xml version="1.0" standalone="no"?><!DOCTYPE svg PUBLIC "-//W3C//DTD SVG 1.1//EN" "http://www.w3.org/Graphics/SVG/1.1/DTD/svg11.dtd"><svg t="1563434434856" class="icon" viewBox="0 0 1058 1024" version="1.1" xmlns="http://www.w3.org/2000/svg" p-id="6588" xmlns:xlink="http://www.w3.org/1999/xlink" width="66.125" height="64"><defs><style type="text/css"></style></defs><path d="M341.333 853.333V614.4H409.6v170.667L785.067 921.6V750.933h68.266V1024zM238.933 307.2H307.2v170.667h-68.267V307.2z" fill="#FF5A06" p-id="6589"></path><path d="M307.2 637.167V620.1a204.8 204.8 0 1 1 0-352.802v-17.067L1058.133 0v887.467zM989.867 102.4L307.2 341.333A126.293 126.293 0 0 0 204.8 307.2a136.533 136.533 0 0 0 0 273.067 126.293 126.293 0 0 0 102.4-34.134l682.667 238.934V102.4z" fill="#1E59E4" p-id="6590"></path></svg>